<svg width="16" height="23" viewBox="0 0 16 23" fill="none" xmlns="http://www.w3.org/2000/svg">
<path fill-rule="evenodd" clip-rule="evenodd" d="M8.00411 23L1.93926 13.2517L1.96493 13.2517C0.741575 11.847 0.000550773 10.0112 3.06882e-07 8.00219C-0.00121031 3.58391 3.57953 0.00121093 7.99781 3.06885e-07C12.4161 -0.00121031 15.9988 3.57953 16 7.99781C16.0005 10.0068 15.2605 11.843 14.0379 13.2483L14.0636 13.2483L8.00411 23ZM7.99863 3C5.23721 3.00076 2.99924 5.23995 3 8.00137C3.00076 10.7628 5.23995 13.0008 8.00137 13C10.7628 12.9992 13.0008 10.7601 13 7.99863C12.9992 5.23721 10.7601 2.99924 7.99863 3Z" fill="#C4C4C4"/>
</svg>
