<svg width="34" height="49" viewBox="0 0 34 49" fill="none" xmlns="http://www.w3.org/2000/svg">
<path fill-rule="evenodd" clip-rule="evenodd" d="M17.0087 49L4.12093 28.2318L4.17548 28.2318C1.57585 25.2392 0.00117039 21.3282 6.52124e-07 17.0481C-0.00257191 7.6353 7.6065 0.0025798 16.9953 6.53799e-07C26.3842 -0.00257849 33.9974 7.62596 34 17.0388C34.0012 21.3188 32.4286 25.2308 29.8306 28.2247L29.8852 28.2247L17.0087 49ZM16.9971 6.39131C11.1291 6.39292 6.37339 11.1634 6.375 17.0464C6.37661 22.9294 11.1349 27.6973 17.0029 27.6957C22.8709 27.694 27.6266 22.9236 27.625 17.0406C27.6234 11.1575 22.8651 6.38969 16.9971 6.39131Z" fill="#008FF5"/>
</svg>
