<svg id="logos" xmlns="http://www.w3.org/2000/svg" xmlns:xlink="http://www.w3.org/1999/xlink" viewBox="0 0 322.62582 239.049"><defs><style>.cls-1{fill:#317cf2;}.cls-1,.cls-2{fill-rule:evenodd;}.cls-2{fill:url(#Безымянный_градиент_10);}</style><linearGradient id="Безымянный_градиент_10" x1="164.73894" y1="185.93741" x2="164.73894" y2="53.08449" gradientUnits="userSpaceOnUse"><stop offset="0" stop-color="#0ea4fb"/><stop offset="1" stop-color="#12ead2"/></linearGradient></defs><title>color_normal_logomark</title><path class="cls-1" d="M231.29993,179.16223a23.26213,23.26213,0,0,0-.02825-32.8753l-20.591-20.59087a23.26183,23.26183,0,0,0-32.89762-.00666l-16.4453,16.44568,37.04282,37.04242c8.95893,8.9586,24.01189,9.1797,32.91932-.01527"/><path class="cls-2" d="M231.27168,146.28693a23.26245,23.26245,0,0,1,.00654,32.8976l32.891-32.8906a23.26284,23.26284,0,0,0-.00654-32.898L210.66752,59.9012a23.262,23.262,0,0,0-32.89761-.00666l-86.4131,86.413a23.24324,23.24324,0,0,1-32.85807.03178L91.563,179.39691c8.73387,8.73388,23.79941,8.71391,32.53253-.01948l53.68755-53.688a23.26183,23.26183,0,0,1,32.89762.00666Z"/><path class="cls-1" d="M161.32461,76.33984l-16.45234-16.452a23.26031,23.26031,0,0,0-32.89664-.00594L58.45325,113.40333a23.26655,23.26655,0,0,0,32.90356,32.90418Z"/></svg>