<svg id="logos" xmlns="http://www.w3.org/2000/svg" xmlns:xlink="http://www.w3.org/1999/xlink" viewBox="0 0 759.76 294.36"><defs><style>.cls-1,.cls-3{fill:#fff;opacity:0.3;}.cls-1,.cls-2{fill-rule:evenodd;}.cls-2{fill:url(#Безымянный_градиент_150);}</style><linearGradient id="Безымянный_градиент_150" x1="201.12955" y1="79.41426" x2="201.12955" y2="217.47107" gradientUnits="userSpaceOnUse"><stop offset="0" stop-color="#fff" stop-opacity="0.9"/><stop offset="1" stop-color="#fff" stop-opacity="0.3"/></linearGradient></defs><title>grayscale_inverted</title><path class="cls-1" d="M270.27507,210.45317a24.17339,24.17339,0,0,0-.00694-34.1859l-21.397-21.397a24.17362,24.17362,0,0,0-34.18661-.007l-17.08983,17.08915,38.49447,38.49377a24.17277,24.17277,0,0,0,34.18592.00693"/><path class="cls-2" d="M270.26783,176.26727a24.17359,24.17359,0,0,1,.007,34.1866l34.17966-34.179a24.17419,24.17419,0,0,0-.00695-34.1866L248.857,86.49775a24.17339,24.17339,0,0,0-34.18593-.00694l-89.798,89.798a24.15449,24.15449,0,0,1-34.145.03332l34.35944,34.35182c9.076,9.07662,24.731,9.0558,33.80621-.02014l55.79118-55.79046a24.1721,24.1721,0,0,1,34.18588.007Z"/><path class="cls-1" d="M197.58134,103.58057,180.48456,86.48449a24.17132,24.17132,0,0,0-34.18523-.00625L90.681,142.09588a24.17086,24.17086,0,0,0,.00694,34.1859c.51506.513,1.07107,1.019,1.6597,1.51462q.481.40087.97806.77119a24.177,24.177,0,0,0,31.54745-2.27886Z"/><path class="cls-3" d="M402.07113,175.99074c-15.66566,0-26.16582-11.53334-26.16582-26.33806,0-14.80434,10.50016-26.33776,26.16582-26.33776,15.493,0,25.8213,11.70529,25.8213,26.33776,0,14.46013-10.32834,26.33806-25.8213,26.33806m25.9932-57.152h-.8603c-5.68121-8.263-15.83756-14.11515-29.09264-14.28815-24.6161-.17159-42.1752,18.76431-42.1752,45.27393,0,26.8546,18.0756,45.447,42.1752,45.10207,13.42808,0,23.41143-6.19654,29.09264-14.80434h.8603v12.39451h19.62461v-85.5563H428.06433Z"/><path class="cls-3" d="M488.10106,106.96048c-14.80036,0-25.68961,10.15674-25.68961,24.44462,0,11.36148,7.792,20.28913,19.83642,23.06754l32.09023,7.40283a5.41277,5.41277,0,0,1,4.47654,5.6802c0,3.61511-2.41111,5.85322-5.50938,5.85322H464.81057v19.10789H512.568c14.97663,0,25.87741-10.50137,25.87741-24.96111,0-11.533-7.69466-20.37882-20.02632-23.23938l-31.91762-7.40294a5.29169,5.29169,0,0,1-4.30316-5.33526c0-3.27126,2.237-5.33638,5.50821-5.33638h45.91129V106.96048Z"/><rect class="cls-3" x="551.31998" y="106.96087" width="19.79628" height="85.55653"/><path class="cls-3" d="M630.53909,175.99074c-15.83787,0-26.3392-11.70528-26.3392-26.1662,0-14.63172,10.32974-26.16581,26.3392-26.16581,15.49312,0,25.8213,11.53409,25.8213,26.16581,0,14.28827-10.32818,26.1662-25.8213,26.1662m0,18.93587c27.37094,0,45.61751-19.968,45.61751-45.27393,0-25.3045-18.07451-45.10207-45.61751-45.10207-28.05934,0-46.30731,19.79757-46.30731,45.10207C584.23178,174.95861,602.65134,194.92661,630.53909,194.92661Z"/><rect class="cls-3" x="551.31998" y="76.83002" width="19.79667" height="19.79652"/></svg>